<svg xmlns="http://www.w3.org/2000/svg" width="26" height="20" viewBox="0 0 26 20" fill="none">
  <path d="M22.2932 9.49219H21.1181C20.9623 9.49219 20.8128 9.5446 20.7026 9.63791C20.5924 9.73121 20.5305 9.85775 20.5305 9.9897C20.5305 10.1216 20.5924 10.2482 20.7026 10.3415C20.8128 10.4348 20.9623 10.4872 21.1181 10.4872V11.4822H20.4213C20.4907 11.3228 20.5274 11.1546 20.53 10.9847C20.5299 10.6562 20.4019 10.3368 20.1657 10.0762C19.9295 9.81552 19.5983 9.62815 19.2235 9.54311C18.8487 9.45808 18.4513 9.48013 18.0928 9.60585C17.7343 9.73157 17.4349 9.95393 17.2408 10.2385C17.2016 10.2951 17.1761 10.3577 17.1656 10.4227C17.1551 10.4877 17.1599 10.5538 17.1797 10.6172C17.1995 10.6807 17.2339 10.7402 17.281 10.7923C17.328 10.8444 17.3868 10.8881 17.4539 10.9209C17.521 10.9537 17.5951 10.975 17.672 10.9834C17.7488 10.9919 17.8269 10.9874 17.9017 10.9702C17.9764 10.953 18.0465 10.9235 18.1077 10.8833C18.1689 10.8431 18.2202 10.793 18.2585 10.736C18.31 10.6603 18.3842 10.5975 18.4735 10.5539C18.5628 10.5102 18.6642 10.4872 18.7673 10.4872C18.9231 10.4872 19.0726 10.5396 19.1828 10.6329C19.2929 10.7262 19.3548 10.8528 19.3548 10.9847C19.3548 11.1167 19.2929 11.2432 19.1828 11.3365C19.0726 11.4298 18.9231 11.4822 18.7673 11.4822C18.6115 11.4822 18.462 11.5347 18.3518 11.628C18.2416 11.7213 18.1797 11.8478 18.1797 11.9797C18.1797 12.1117 18.2416 12.2382 18.3518 12.3315C18.462 12.4248 18.6115 12.4773 18.7673 12.4773C18.9231 12.4773 19.0726 12.5297 19.1828 12.623C19.2929 12.7163 19.3548 12.8428 19.3548 12.9748C19.3548 13.1067 19.2929 13.2333 19.1828 13.3266C19.0726 13.4199 18.9231 13.4723 18.7673 13.4723C18.6642 13.4723 18.5628 13.4493 18.4735 13.4056C18.3842 13.362 18.31 13.2992 18.2585 13.2235C18.2202 13.1665 18.1689 13.1164 18.1077 13.0762C18.0465 13.036 17.9764 13.0065 17.9017 12.9893C17.8269 12.9721 17.7488 12.9676 17.672 12.9761C17.5951 12.9845 17.521 13.0058 17.4539 13.0386C17.3868 13.0714 17.328 13.1151 17.281 13.1672C17.2339 13.2193 17.1995 13.2788 17.1797 13.3423C17.1599 13.4057 17.1551 13.4718 17.1656 13.5368C17.1761 13.6018 17.2016 13.6644 17.2408 13.721C17.4349 14.0056 17.7343 14.2279 18.0928 14.3536C18.4513 14.4794 18.8487 14.5014 19.2235 14.4164C19.5983 14.3313 19.9295 14.144 20.1657 13.8833C20.4019 13.6227 20.5299 13.3033 20.53 12.9748C20.5274 12.8049 20.4907 12.6367 20.4213 12.4773H21.1175V13.9698C21.1175 14.1017 21.1794 14.2283 21.2896 14.3216C21.3998 14.4149 21.5492 14.4673 21.7051 14.4673C21.8609 14.4673 22.0103 14.4149 22.1205 14.3216C22.2307 14.2283 22.2926 14.1017 22.2926 13.9698V10.4872C22.4484 10.4872 22.5979 10.4348 22.7081 10.3415C22.8183 10.2482 22.8802 10.1216 22.8802 9.9897C22.8802 9.85775 22.8183 9.73121 22.7081 9.63791C22.5979 9.5446 22.449 9.49219 22.2932 9.49219Z" fill="white"/>
  <path d="M2.4804 12.8607H2.8444V15.1194C2.8444 15.3184 2.9692 15.5025 3.1668 15.5771C3.2292 15.602 3.2968 15.6169 3.3644 15.6169C3.4996 15.6169 3.6348 15.5672 3.7336 15.4726L6.4584 12.8657H11.44V15.5025C11.44 16.6716 12.4332 17.6219 13.6552 17.6219H20.3216L22.6564 19.8557C22.7552 19.9502 22.8904 20 23.0256 20C23.0932 20 23.1608 19.99 23.2232 19.9602C23.4156 19.8856 23.5456 19.7015 23.5456 19.5025V17.6219H23.7848C25.0068 17.6219 26 16.6716 26 15.5025V8.48757C26 7.31842 25.0068 6.36817 23.7848 6.36817H16.692V2.37315C16.692 1.06469 15.5792 1.73655e-05 14.2116 1.73655e-05H2.4804C1.1128 -0.00495775 0 1.05972 0 2.36817V10.4876C0 11.796 1.1128 12.8607 2.4804 12.8607ZM23.7848 7.35822C24.4348 7.35822 24.96 7.86071 24.96 8.4826V15.4975C24.96 16.1194 24.4348 16.6219 23.7848 16.6219H23.0256C22.7396 16.6219 22.5056 16.8458 22.5056 17.1194V18.2985L20.904 16.7662C20.8052 16.6716 20.6752 16.6219 20.5348 16.6219H13.6552C13.0052 16.6219 12.48 16.1194 12.48 15.4975V12.8607H14.2116C15.5792 12.8607 16.692 11.796 16.692 10.4876V7.35822H23.7848ZM1.04 2.36817C1.04 1.60698 1.6848 0.990066 2.4804 0.990066H14.2064C15.002 0.990066 15.6468 1.60698 15.6468 2.36817V10.4876C15.6468 11.2488 15.002 11.8657 14.2064 11.8657H6.24C6.0996 11.8657 5.9696 11.9204 5.8708 12.01L3.8792 13.9154V12.3632C3.8792 12.0896 3.6452 11.8657 3.3592 11.8657H2.4752C1.6848 11.8657 1.04 11.2488 1.04 10.4876V2.36817Z" fill="white"/>
  <path d="M5.5 9.5C5.32114 9.5 5.19106 9.48011 5.10976 9.44034C5.03659 9.40057 5 9.34754 5 9.28125C5 9.26136 5.00407 9.23816 5.0122 9.21165C5.0122 9.18513 5.02033 9.13873 5.03659 9.07244L6.96341 2.80824C6.99594 2.69555 7.06504 2.616 7.17073 2.5696C7.28455 2.5232 7.43902 2.5 7.63415 2.5H8.36585C8.56098 2.5 8.71138 2.5232 8.81707 2.5696C8.93089 2.616 9.00407 2.69555 9.03659 2.80824L10.9634 9.07244C10.9878 9.1785 11 9.24811 11 9.28125C11 9.42708 10.8333 9.5 10.5 9.5H10.0122C9.85772 9.5 9.72764 9.48674 9.62195 9.46023C9.51626 9.42708 9.45122 9.36411 9.42683 9.27131L9.07317 7.93892H6.92683L6.57317 9.27131C6.54878 9.36411 6.47967 9.42708 6.36585 9.46023C6.26016 9.48674 6.13821 9.5 6 9.5H5.5ZM7.81707 4.57812L7.19512 6.89489H8.79268L8.15854 4.57812C8.13415 4.45881 8.10976 4.33949 8.08537 4.22017C8.06098 4.10085 8.04065 3.98485 8.02439 3.87216H7.96341C7.93902 3.98485 7.91463 4.10085 7.89024 4.22017C7.86585 4.33949 7.84146 4.45881 7.81707 4.57812Z" fill="white"/>
</svg>